<svg width="18" height="18" viewBox="0 0 18 18" fill="none" xmlns="http://www.w3.org/2000/svg">
<circle cx="9" cy="9" r="9" fill="#B6C6E3"/>
<path d="M8.40559 7.88834C8.01905 7.88834 7.70559 8.2018 7.70559 8.58834C7.70559 9.58641 7.03049 9.77667 6.53699 9.77667H5.42314C5.0366 9.77667 4.72313 10.0901 4.72313 10.4767C4.72313 10.8632 5.0366 11.1767 5.42314 11.1767H6.53699C6.88391 11.1767 7.17162 10.9243 7.2272 10.5932C7.36258 9.87187 7.80513 9.61791 8.32677 9.82105C9.28815 10.1956 8.98841 11.1767 10.4811 11.1767H11.5832C13.0115 11.1767 14.1918 10.0318 14.2 8.60346C14.2082 7.16929 13.044 6 11.6118 6H10.8924C9.13555 6 9.76863 7.88834 8.40559 7.88834ZM11.6118 7.40001C12.267 7.40001 12.8001 7.93314 12.8001 8.58834C12.8001 9.24355 12.267 9.77667 11.6118 9.77667H10.294C9.63885 9.77667 9.10573 9.24355 9.10573 8.58834C9.10573 7.93314 9.63885 7.40001 10.294 7.40001H11.6118ZM3.7 9.28835C3.31346 9.28835 3 8.97489 3 8.58834C3 8.2018 3.31346 7.88834 3.7 7.88834C4.08655 7.88834 4.40001 8.2018 4.40001 8.58834C4.40001 8.97489 4.08655 9.28835 3.7 9.28835ZM5.42314 6H6.53699C6.92353 6 7.237 6.31346 7.237 6.7C7.237 7.08655 6.92353 7.40001 6.53699 7.40001H5.42314C5.0366 7.40001 4.72313 7.08655 4.72313 6.7C4.72313 6.31346 5.0366 6 5.42314 6Z" fill="#102545"/>
</svg>
