<svg width="40" height="40" viewBox="0 0 40 40" fill="none" xmlns="http://www.w3.org/2000/svg">
<circle cx="20" cy="20" r="20" fill="#0D6EFD"/>
<path d="M19.5834 18.0464C18.7551 18.0464 18.0834 18.7181 18.0834 19.5464C18.0834 21.6852 16.6368 22.0929 15.5793 22.0929H13.1924C12.3641 22.0929 11.6924 22.7646 11.6924 23.5929C11.6924 24.4212 12.3641 25.0929 13.1924 25.0929H15.5793C16.3227 25.0929 16.9392 24.552 17.0583 23.8425C17.3484 22.2969 18.2967 21.7527 19.4145 22.188C21.4746 22.9905 20.8323 25.0929 24.0309 25.0929H26.3926C29.4532 25.0929 31.9825 22.6395 31.9999 19.5788C32.0176 16.5056 29.5228 14 26.4538 14H24.9123C21.1476 14 22.5042 18.0464 19.5834 18.0464ZM26.4538 17C27.8578 17 29.0002 18.1424 29.0002 19.5464C29.0002 20.9505 27.8578 22.0929 26.4538 22.0929H23.6301C22.2261 22.0929 21.0837 20.9505 21.0837 19.5464C21.0837 18.1424 22.2261 17 23.6301 17H26.4538ZM9.50001 21.0465C8.67171 21.0465 8 20.3748 8 19.5464C8 18.7181 8.67171 18.0464 9.50001 18.0464C10.3283 18.0464 11 18.7181 11 19.5464C11 20.3748 10.3283 21.0465 9.50001 21.0465ZM13.1924 14H15.5793C16.4076 14 17.0793 14.6717 17.0793 15.5C17.0793 16.3283 16.4076 17 15.5793 17H13.1924C12.3641 17 11.6924 16.3283 11.6924 15.5C11.6924 14.6717 12.3641 14 13.1924 14Z" fill="white"/>
</svg>
