<svg width="291" height="133" viewBox="0 0 291 133" fill="none" xmlns="http://www.w3.org/2000/svg">
<g filter="url(#filter0_d_457_192)">
<path d="M38.2907 100.535L27.5 12.5234L264.558 18.256L274 73.8955L38.2907 100.535Z" fill="white" fill-opacity="0.01" shape-rendering="crispEdges"/>
<path d="M38.2907 100.535L27.5 12.5234L264.558 18.256L274 73.8955L38.2907 100.535Z" stroke="#8799AB" stroke-width="3" shape-rendering="crispEdges"/>
</g>
<g filter="url(#filter1_b_457_192)">
<path d="M27.8359 96.4886L38.6266 8.13975L261.522 7.46533L264.22 81.9886L27.8359 96.4886Z" fill="#0971FE" fill-opacity="0.3"/>
</g>
<path fill-rule="evenodd" clip-rule="evenodd" d="M50.5796 62.6077C51.8664 63.4331 53.6023 63.8459 55.7875 63.8459C57.9483 63.8459 59.6236 63.4696 60.8132 62.7169C62.0029 61.94 62.8405 60.896 63.3261 59.5849C63.8117 58.2496 64.0545 56.72 64.0545 54.9962V52.5561H58.2275V55.4332C58.2275 56.1373 58.1789 56.805 58.0818 57.4362C58.009 58.0675 57.8026 58.5773 57.4627 58.9658C57.1471 59.33 56.6008 59.5121 55.8239 59.5121C55.1198 59.5121 54.5735 59.3543 54.185 59.0386C53.8209 58.6987 53.5659 58.2253 53.4203 57.6183C53.2989 56.9871 53.2382 56.2587 53.2382 55.4332V42.0311C53.2382 41.2785 53.2867 40.5987 53.3838 39.9917C53.4809 39.3605 53.7116 38.8506 54.0758 38.4621C54.44 38.0737 55.0227 37.8794 55.8239 37.8794C56.6251 37.8794 57.1835 38.0737 57.4991 38.4621C57.839 38.8263 58.0454 39.3119 58.1183 39.9189C58.1911 40.5016 58.2275 41.1328 58.2275 41.8126V44.5805H64.0545V42.104C64.0545 40.4045 63.7996 38.9113 63.2897 37.6245C62.8041 36.3377 61.9543 35.3423 60.7404 34.6382C59.5507 33.9341 57.8997 33.582 55.7875 33.582C53.6023 33.582 51.8664 33.9826 50.5796 34.7838C49.3171 35.5851 48.4309 36.7262 47.921 38.2072C47.4112 39.6639 47.1562 41.412 47.1562 43.4515V54.0493C47.1562 55.9916 47.4112 57.7033 47.921 59.1843C48.4309 60.6411 49.3171 61.7822 50.5796 62.6077ZM76.1559 63.8459C73.9951 63.8459 72.2834 63.4574 71.0209 62.6805C69.7584 61.9036 68.8479 60.7989 68.2895 59.3664C67.7553 57.9097 67.4883 56.1737 67.4883 54.1585V43.1601C67.4883 41.145 67.7553 39.4211 68.2895 37.9887C68.8479 36.5562 69.7584 35.4637 71.0209 34.711C72.2834 33.9584 73.9951 33.582 76.1559 33.582C78.341 33.582 80.0648 33.9705 81.3273 34.7474C82.6141 35.5001 83.5246 36.5926 84.0587 38.0251C84.6171 39.4333 84.8964 41.145 84.8964 43.1601V54.1585C84.8964 56.1737 84.6171 57.9097 84.0587 59.3664C83.5246 60.7989 82.6141 61.9036 81.3273 62.6805C80.0648 63.4574 78.341 63.8459 76.1559 63.8459ZM76.1559 59.5121C76.9328 59.5121 77.5034 59.3421 77.8676 59.0022C78.2317 58.638 78.4745 58.1646 78.5959 57.5819C78.7173 56.9749 78.778 56.3315 78.778 55.6517V41.7034C78.778 41.0236 78.7173 40.3923 78.5959 39.8096C78.4745 39.2269 78.2317 38.7656 77.8676 38.4257C77.5034 38.0615 76.9328 37.8794 76.1559 37.8794C75.4275 37.8794 74.8812 38.0615 74.517 38.4257C74.1529 38.7656 73.9101 39.2269 73.7887 39.8096C73.6673 40.3923 73.6066 41.0236 73.6066 41.7034V55.6517C73.6066 56.3315 73.6551 56.9749 73.7523 57.5819C73.8737 58.1646 74.1164 58.638 74.4806 59.0022C74.8448 59.3421 75.4032 59.5121 76.1559 59.5121ZM153.307 63.8823C151.316 63.8823 149.738 63.4696 148.573 62.6441C147.407 61.7943 146.57 60.6046 146.06 59.0751C145.574 57.5212 145.332 55.7245 145.332 53.6851V43.8157C145.332 41.7034 145.587 39.8825 146.096 38.3529C146.606 36.8233 147.492 35.6458 148.755 34.8203C150.042 33.9948 151.778 33.582 153.963 33.582C156.075 33.582 157.738 33.9341 158.952 34.6382C160.19 35.3423 161.077 36.3377 161.611 37.6245C162.145 38.9113 162.412 40.4409 162.412 42.2132V43.9249H156.549V41.8491C156.549 41.0721 156.5 40.3923 156.403 39.8096C156.306 39.2026 156.075 38.7292 155.711 38.3893C155.371 38.0494 154.813 37.8794 154.036 37.8794C153.234 37.8794 152.652 38.0858 152.288 38.4985C151.923 38.9113 151.693 39.4454 151.596 40.101C151.498 40.7322 151.45 41.412 151.45 42.1404V55.2147C151.45 56.0402 151.523 56.7807 151.668 57.4362C151.814 58.0918 152.081 58.6016 152.47 58.9658C152.882 59.33 153.465 59.5121 154.218 59.5121C154.97 59.5121 155.553 59.3178 155.966 58.9294C156.379 58.5409 156.658 58.0189 156.803 57.3634C156.973 56.6836 157.058 55.9188 157.058 55.069V51.937H154.181V48.2951H162.485V63.4453H158.552L158.187 60.7867C157.799 61.6851 157.216 62.4256 156.439 63.0083C155.662 63.591 154.618 63.8823 153.307 63.8823ZM179.215 62.8626C180.429 63.5181 181.946 63.8459 183.767 63.8459C185.296 63.8459 186.62 63.5303 187.737 62.899C188.878 62.2678 189.764 61.3937 190.395 60.2769C191.026 59.16 191.342 57.9097 191.342 56.5258C191.342 54.5106 190.893 52.8232 189.994 51.4636C189.12 50.0797 188.064 48.8536 186.826 47.7853L183.84 45.1631C183.014 44.4348 182.359 43.7428 181.873 43.0873C181.412 42.4075 181.181 41.5456 181.181 40.5016C181.181 39.8703 181.351 39.2998 181.691 38.7899C182.031 38.2558 182.553 37.9887 183.257 37.9887C183.913 37.9887 184.398 38.1829 184.714 38.5714C185.054 38.9598 185.272 39.494 185.369 40.1738C185.491 40.8536 185.576 41.6427 185.624 42.541L190.759 41.7762C190.711 40.8293 190.577 39.8825 190.359 38.9356C190.164 37.9644 189.8 37.0782 189.266 36.277C188.756 35.4515 188.028 34.796 187.081 34.3104C186.134 33.8248 184.92 33.582 183.439 33.582C180.963 33.582 179.008 34.2376 177.576 35.5486C176.168 36.8354 175.463 38.6928 175.463 41.1207C175.463 42.8202 175.803 44.2527 176.483 45.4181C177.187 46.5835 178.086 47.6275 179.178 48.5501L182.237 51.2086C183.208 52.0584 183.985 52.9082 184.568 53.7579C185.175 54.5834 185.479 55.6153 185.479 56.8535C185.479 57.4848 185.333 58.0432 185.042 58.5288C184.774 59.0144 184.252 59.2571 183.476 59.2571C182.844 59.2571 182.31 59.0629 181.873 58.6744C181.46 58.2617 181.145 57.6547 180.926 56.8535C180.732 56.028 180.611 55.0083 180.562 53.7944L175.391 54.6684C175.488 56.7564 175.84 58.4802 176.447 59.8398C177.078 61.1752 178.001 62.1828 179.215 62.8626ZM202.939 63.8459C200.778 63.8459 199.066 63.4574 197.804 62.6805C196.541 61.9036 195.631 60.7989 195.072 59.3664C194.538 57.9097 194.271 56.1737 194.271 54.1585V43.1601C194.271 41.145 194.538 39.4211 195.072 37.9887C195.631 36.5562 196.541 35.4637 197.804 34.711C199.066 33.9584 200.778 33.582 202.939 33.582C205.124 33.582 206.848 33.9705 208.11 34.7474C209.397 35.5001 210.307 36.5926 210.842 38.0251C211.4 39.4333 211.679 41.145 211.679 43.1601V54.1585C211.679 56.1737 211.4 57.9097 210.842 59.3664C210.307 60.7989 209.397 61.9036 208.11 62.6805C206.848 63.4574 205.124 63.8459 202.939 63.8459ZM202.939 59.5121C203.716 59.5121 204.286 59.3421 204.65 59.0022C205.015 58.638 205.257 58.1646 205.379 57.5819C205.5 56.9749 205.561 56.3315 205.561 55.6517V41.7034C205.561 41.0236 205.5 40.3923 205.379 39.8096C205.257 39.2269 205.015 38.7656 204.65 38.4257C204.286 38.0615 203.716 37.8794 202.939 37.8794C202.21 37.8794 201.664 38.0615 201.3 38.4257C200.936 38.7656 200.693 39.2269 200.571 39.8096C200.45 40.3923 200.389 41.0236 200.389 41.7034V55.6517C200.389 56.3315 200.438 56.9749 200.535 57.5819C200.656 58.1646 200.899 58.638 201.263 59.0022C201.628 59.3421 202.186 59.5121 202.939 59.5121ZM218.989 62.6805C220.252 63.4574 221.963 63.8459 224.124 63.8459C226.309 63.8459 228.033 63.4574 229.296 62.6805C230.582 61.9036 231.493 60.7989 232.027 59.3664C232.585 57.9097 232.865 56.1737 232.865 54.1585V43.1601C232.865 41.145 232.585 39.4333 232.027 38.0251C231.493 36.5926 230.582 35.5001 229.296 34.7474C228.033 33.9705 226.309 33.582 224.124 33.582C221.963 33.582 220.252 33.9584 218.989 34.711C217.727 35.4637 216.816 36.5562 216.258 37.9887C215.724 39.4211 215.457 41.145 215.457 43.1601V54.1585C215.457 56.1737 215.724 57.9097 216.258 59.3664C216.816 60.7989 217.727 61.9036 218.989 62.6805ZM225.836 59.0022C225.472 59.3421 224.901 59.5121 224.124 59.5121C223.372 59.5121 222.813 59.3421 222.449 59.0022C222.085 58.638 221.842 58.1646 221.721 57.5819C221.624 56.9749 221.575 56.3315 221.575 55.6517V41.7034C221.575 41.0236 221.636 40.3923 221.757 39.8096C221.878 39.2269 222.121 38.7656 222.485 38.4257C222.85 38.0615 223.396 37.8794 224.124 37.8794C224.901 37.8794 225.472 38.0615 225.836 38.4257C226.2 38.7656 226.443 39.2269 226.564 39.8096C226.686 40.3923 226.746 41.0236 226.746 41.7034V55.6517C226.746 56.3315 226.686 56.9749 226.564 57.5819C226.443 58.1646 226.2 58.638 225.836 59.0022ZM237.079 33.9456V63.4447H242.215V47.1291L248.77 63.4447H252.776V33.9456H247.823V49.3142L241.268 33.9456H237.079ZM125.401 33.9456V63.4447H130.536V47.1291L137.091 63.4447H141.097V33.9456H136.144V49.3142L129.589 33.9456H125.401ZM114.708 63.4447V33.9456H120.681V63.4447H114.708ZM89.5117 33.9456L89.0018 63.4447H93.4085L93.8091 43.3052L97.7423 63.4447H101.493L105.245 43.4508L105.718 63.4447H110.088L109.578 33.9456H103.424L99.5268 52.5555L95.8849 33.9456H89.5117Z" fill="#8799AB"/>
<defs>
<filter id="filter0_d_457_192" x="0.800781" y="0.981934" width="289.945" height="131.21" filterUnits="userSpaceOnUse" color-interpolation-filters="sRGB">
<feFlood flood-opacity="0" result="BackgroundImageFix"/>
<feColorMatrix in="SourceAlpha" type="matrix" values="0 0 0 0 0 0 0 0 0 0 0 0 0 0 0 0 0 0 127 0" result="hardAlpha"/>
<feOffset dx="-5" dy="10"/>
<feGaussianBlur stdDeviation="10"/>
<feComposite in2="hardAlpha" operator="out"/>
<feColorMatrix type="matrix" values="0 0 0 0 0.0352941 0 0 0 0 0.443137 0 0 0 0 0.996078 0 0 0 0.2 0"/>
<feBlend mode="normal" in2="BackgroundImageFix" result="effect1_dropShadow_457_192"/>
<feBlend mode="normal" in="SourceGraphic" in2="effect1_dropShadow_457_192" result="shape"/>
</filter>
<filter id="filter1_b_457_192" x="23.8359" y="3.46533" width="244.383" height="97.0234" filterUnits="userSpaceOnUse" color-interpolation-filters="sRGB">
<feFlood flood-opacity="0" result="BackgroundImageFix"/>
<feGaussianBlur in="BackgroundImageFix" stdDeviation="2"/>
<feComposite in2="SourceAlpha" operator="in" result="effect1_backgroundBlur_457_192"/>
<feBlend mode="normal" in="SourceGraphic" in2="effect1_backgroundBlur_457_192" result="shape"/>
</filter>
</defs>
</svg>
