<svg width="33" height="44" viewBox="0 0 33 44" fill="none" xmlns="http://www.w3.org/2000/svg">
<g opacity="0.8">
<path d="M6 0H20.5L33 13V38C33 41.3137 30.3137 44 27 44H6C2.68629 44 0 41.3137 0 38V6C0 2.68629 2.68629 0 6 0Z" fill="url(#paint0_linear_821_97)"/>
<path d="M27.2181 31.0004L26.1221 29.4084L25.1861 31.0004H23.4021L25.2341 28.1124L23.3381 25.3604H25.1861L26.2501 26.9124L27.1621 25.3604H28.9461L27.1381 28.2004L29.0661 31.0004H27.2181Z" fill="#FDFDFD"/>
<path d="M17.4358 28.1677C17.4358 27.613 17.5505 27.1197 17.7798 26.6877C18.0145 26.2504 18.3451 25.9117 18.7718 25.6717C19.1985 25.4264 19.6891 25.3037 20.2438 25.3037C20.9478 25.3037 21.5398 25.493 22.0198 25.8717C22.4998 26.245 22.8091 26.7544 22.9478 27.3997H21.2598C21.1585 27.1864 21.0171 27.0237 20.8358 26.9117C20.6598 26.7997 20.4545 26.7437 20.2198 26.7437C19.8571 26.7437 19.5665 26.8744 19.3478 27.1357C19.1345 27.3917 19.0278 27.7357 19.0278 28.1677C19.0278 28.605 19.1345 28.9544 19.3478 29.2157C19.5665 29.4717 19.8571 29.5997 20.2198 29.5997C20.4545 29.5997 20.6598 29.5437 20.8358 29.4317C21.0171 29.3197 21.1585 29.157 21.2598 28.9437H22.9478C22.8091 29.589 22.4998 30.101 22.0198 30.4797C21.5398 30.853 20.9478 31.0397 20.2438 31.0397C19.6891 31.0397 19.1985 30.9197 18.7718 30.6797C18.3451 30.4344 18.0145 30.0957 17.7798 29.6637C17.5505 29.2264 17.4358 28.7277 17.4358 28.1677Z" fill="#FDFDFD"/>
<path d="M14.0349 31.0565C13.5069 31.0565 13.0216 30.9338 12.5789 30.6885C12.1362 30.4378 11.7842 30.0938 11.5229 29.6565C11.2669 29.2138 11.1389 28.7151 11.1389 28.1605C11.1389 27.6058 11.2669 27.1098 11.5229 26.6725C11.7842 26.2298 12.1362 25.8858 12.5789 25.6405C13.0216 25.3951 13.5069 25.2725 14.0349 25.2725C14.5682 25.2725 15.0536 25.3951 15.4909 25.6405C15.9336 25.8858 16.2829 26.2298 16.5389 26.6725C16.7949 27.1098 16.9229 27.6058 16.9229 28.1605C16.9229 28.7151 16.7949 29.2138 16.5389 29.6565C16.2829 30.0938 15.9336 30.4378 15.4909 30.6885C15.0482 30.9338 14.5629 31.0565 14.0349 31.0565ZM14.0349 29.6005C14.4349 29.6005 14.7496 29.4698 14.9789 29.2085C15.2136 28.9471 15.3309 28.5978 15.3309 28.1605C15.3309 27.7125 15.2136 27.3605 14.9789 27.1045C14.7496 26.8431 14.4349 26.7125 14.0349 26.7125C13.6296 26.7125 13.3122 26.8431 13.0829 27.1045C12.8536 27.3605 12.7389 27.7125 12.7389 28.1605C12.7389 28.6031 12.8536 28.9551 13.0829 29.2165C13.3122 29.4725 13.6296 29.6005 14.0349 29.6005Z" fill="#FDFDFD"/>
<path d="M7.68 25.3604C8.272 25.3604 8.78933 25.4804 9.232 25.7204C9.68 25.955 10.024 26.2857 10.264 26.7124C10.504 27.139 10.624 27.627 10.624 28.1764C10.624 28.7204 10.5013 29.2057 10.256 29.6324C10.016 30.059 9.672 30.395 9.224 30.6404C8.78133 30.8804 8.26666 31.0004 7.68 31.0004H5.448V25.3604H7.68ZM7.56 29.6164C8.01866 29.6164 8.37866 29.491 8.64 29.2404C8.90133 28.9897 9.032 28.635 9.032 28.1764C9.032 27.7124 8.90133 27.355 8.64 27.1044C8.37866 26.8484 8.01866 26.7204 7.56 26.7204H7.016V29.6164H7.56Z" fill="#FDFDFD"/>
<path d="M33 13H20.5V0L33 13Z" fill="#6FA6E3"/>
</g>
<defs>
<linearGradient id="paint0_linear_821_97" x1="4.91738e-07" y1="44" x2="33" y2="1.35228e-06" gradientUnits="userSpaceOnUse">
<stop stop-color="#02CDED"/>
<stop offset="1" stop-color="#2D35BE"/>
</linearGradient>
</defs>
</svg>
