<svg width="1675" height="437" viewBox="0 0 1675 437" fill="none" xmlns="http://www.w3.org/2000/svg">
<path fill-rule="evenodd" clip-rule="evenodd" d="M1214.86 141.729H1145.31V379.258H1214.86V141.729ZM1144 140.417V380.57H1216.18V140.417H1144Z" fill="white" fill-opacity="0.15"/>
<path fill-rule="evenodd" clip-rule="evenodd" d="M1329.69 1.31231H1260.14V238.841H1329.69V1.31231ZM1258.83 0V240.153H1331V0H1258.83Z" fill="white" fill-opacity="0.15"/>
<path fill-rule="evenodd" clip-rule="evenodd" d="M1548.19 11.8104H1516.7C1506.19 11.8104 1497.67 20.3297 1497.67 30.8389V127.294C1497.67 137.803 1506.19 146.322 1516.7 146.322H1548.19C1558.7 146.322 1567.22 137.803 1567.22 127.294V30.8389C1567.22 20.3297 1558.7 11.8104 1548.19 11.8104ZM1516.7 10.498C1505.46 10.498 1496.36 19.605 1496.36 30.8389V127.294C1496.36 138.528 1505.46 147.635 1516.7 147.635H1548.19C1559.43 147.635 1568.53 138.528 1568.53 127.294V30.8389C1568.53 19.605 1559.43 10.498 1548.19 10.498H1516.7Z" fill="white" fill-opacity="0.15"/>
<path fill-rule="evenodd" clip-rule="evenodd" d="M1541.63 261.806H1510.14C1499.63 261.806 1491.11 270.326 1491.11 280.835V377.29C1491.11 387.799 1499.63 396.318 1510.14 396.318H1541.63C1552.14 396.318 1560.66 387.799 1560.66 377.29V280.835C1560.66 270.326 1552.14 261.806 1541.63 261.806ZM1510.14 260.494C1498.9 260.494 1489.79 269.601 1489.79 280.835V377.29C1489.79 388.524 1498.9 397.631 1510.14 397.631H1541.63C1552.86 397.631 1561.97 388.524 1561.97 377.29V280.835C1561.97 269.601 1552.86 260.494 1541.63 260.494H1510.14Z" fill="white" fill-opacity="0.15"/>
<path fill-rule="evenodd" clip-rule="evenodd" d="M1673.52 87.2684H1603.97V160.758H1673.52V87.2684ZM1602.65 85.9561V162.07H1674.83V85.9561H1602.65Z" fill="white" fill-opacity="0.15"/>
<path fill-rule="evenodd" clip-rule="evenodd" d="M1673.52 293.302H1603.97V366.791H1673.52V293.302ZM1602.65 291.989V368.103H1674.83V291.989H1602.65Z" fill="white" fill-opacity="0.15"/>
<path fill-rule="evenodd" clip-rule="evenodd" d="M1445.18 335.296H1375.62V435.688H1445.18V335.296ZM1374.31 333.983V437H1446.49V333.983H1374.31Z" fill="white" fill-opacity="0.15"/>
<path fill-rule="evenodd" clip-rule="evenodd" d="M1145.31 75.4577C1145.31 94.6641 1160.88 110.234 1180.09 110.234C1199.29 110.234 1214.86 94.6641 1214.86 75.4577C1214.86 56.2513 1199.29 40.6815 1180.09 40.6815C1160.88 40.6815 1145.31 56.2513 1145.31 75.4577ZM1180.09 39.3691C1160.16 39.3691 1144 55.5266 1144 75.4577C1144 95.3889 1160.16 111.546 1180.09 111.546C1200.02 111.546 1216.18 95.3889 1216.18 75.4577C1216.18 55.5266 1200.02 39.3691 1180.09 39.3691Z" fill="white" fill-opacity="0.15"/>
<path fill-rule="evenodd" clip-rule="evenodd" d="M1375.62 140.418C1375.62 159.624 1391.19 175.194 1410.4 175.194C1429.61 175.194 1445.18 159.624 1445.18 140.418C1445.18 121.211 1429.61 105.641 1410.4 105.641C1391.19 105.641 1375.62 121.211 1375.62 140.418ZM1410.4 104.329C1390.47 104.329 1374.31 120.487 1374.31 140.418C1374.31 160.349 1390.47 176.506 1410.4 176.506C1430.33 176.506 1446.49 160.349 1446.49 140.418C1446.49 120.487 1430.33 104.329 1410.4 104.329Z" fill="white" fill-opacity="0.15"/>
<rect x="1374.31" y="220.469" width="72.1772" height="72.1772" rx="36.0886" fill="#0055FF"/>
<path fill-rule="evenodd" clip-rule="evenodd" d="M1603.97 227.03C1603.97 246.236 1619.54 261.806 1638.74 261.806C1657.95 261.806 1673.52 246.236 1673.52 227.03C1673.52 207.824 1657.95 192.254 1638.74 192.254C1619.54 192.254 1603.97 207.824 1603.97 227.03ZM1638.74 190.941C1618.81 190.941 1602.65 207.099 1602.65 227.03C1602.65 246.961 1618.81 263.119 1638.74 263.119C1658.67 263.119 1674.83 246.961 1674.83 227.03C1674.83 207.099 1658.67 190.941 1638.74 190.941Z" fill="white" fill-opacity="0.15"/>
<path fill-rule="evenodd" clip-rule="evenodd" d="M1260.14 305.113C1260.14 324.319 1275.71 339.889 1294.92 339.889C1314.12 339.889 1329.69 324.319 1329.69 305.113C1329.69 285.907 1314.12 270.337 1294.92 270.337C1275.71 270.337 1260.14 285.907 1260.14 305.113ZM1294.92 269.024C1274.98 269.024 1258.83 285.182 1258.83 305.113C1258.83 325.044 1274.98 341.202 1294.92 341.202C1314.85 341.202 1331 325.044 1331 305.113C1331 285.182 1314.85 269.024 1294.92 269.024Z" fill="white" fill-opacity="0.15"/>
<path fill-rule="evenodd" clip-rule="evenodd" d="M642.865 141.729H573.312V379.258H642.865V141.729ZM572 140.417V380.57H644.177V140.417H572Z" fill="white" fill-opacity="0.15"/>
<path fill-rule="evenodd" clip-rule="evenodd" d="M757.692 1.31231H688.14V238.841H757.692V1.31231ZM686.827 0V240.153H759.005V0H686.827Z" fill="white" fill-opacity="0.15"/>
<path fill-rule="evenodd" clip-rule="evenodd" d="M976.192 11.8104H944.697C934.188 11.8104 925.668 20.3297 925.668 30.8389V127.294C925.668 137.803 934.188 146.322 944.697 146.322H976.192C986.701 146.322 995.221 137.803 995.221 127.294V30.8389C995.221 20.3297 986.701 11.8104 976.192 11.8104ZM944.697 10.498C933.463 10.498 924.356 19.605 924.356 30.8389V127.294C924.356 138.528 933.463 147.635 944.697 147.635H976.192C987.426 147.635 996.533 138.528 996.533 127.294V30.8389C996.533 19.605 987.426 10.498 976.192 10.498H944.697Z" fill="white" fill-opacity="0.15"/>
<path fill-rule="evenodd" clip-rule="evenodd" d="M969.631 261.806H938.135C927.626 261.806 919.107 270.326 919.107 280.835V377.29C919.107 387.799 927.626 396.318 938.135 396.318H969.631C980.14 396.318 988.659 387.799 988.659 377.29V280.835C988.659 270.326 980.14 261.806 969.631 261.806ZM938.135 260.494C926.901 260.494 917.794 269.601 917.794 280.835V377.29C917.794 388.524 926.901 397.631 938.135 397.631H969.631C980.865 397.631 989.972 388.524 989.972 377.29V280.835C989.972 269.601 980.865 260.494 969.631 260.494H938.135Z" fill="white" fill-opacity="0.15"/>
<path fill-rule="evenodd" clip-rule="evenodd" d="M1101.52 87.2684H1031.97V160.758H1101.52V87.2684ZM1030.65 85.9561V162.07H1102.83V85.9561H1030.65Z" fill="white" fill-opacity="0.15"/>
<path fill-rule="evenodd" clip-rule="evenodd" d="M1101.52 293.302H1031.97V366.791H1101.52V293.302ZM1030.65 291.989V368.103H1102.83V291.989H1030.65Z" fill="white" fill-opacity="0.15"/>
<path fill-rule="evenodd" clip-rule="evenodd" d="M873.176 335.296H803.623V435.688H873.176V335.296ZM802.311 333.983V437H874.488V333.983H802.311Z" fill="white" fill-opacity="0.15"/>
<path fill-rule="evenodd" clip-rule="evenodd" d="M573.312 75.4577C573.312 94.6641 588.882 110.234 608.089 110.234C627.295 110.234 642.865 94.6641 642.865 75.4577C642.865 56.2513 627.295 40.6815 608.089 40.6815C588.882 40.6815 573.312 56.2513 573.312 75.4577ZM608.089 39.3691C588.157 39.3691 572 55.5266 572 75.4577C572 95.3889 588.157 111.546 608.089 111.546C628.02 111.546 644.177 95.3889 644.177 75.4577C644.177 55.5266 628.02 39.3691 608.089 39.3691Z" fill="white" fill-opacity="0.15"/>
<path fill-rule="evenodd" clip-rule="evenodd" d="M803.623 140.418C803.623 159.624 819.193 175.194 838.399 175.194C857.606 175.194 873.175 159.624 873.175 140.418C873.175 121.211 857.606 105.641 838.399 105.641C819.193 105.641 803.623 121.211 803.623 140.418ZM838.399 104.329C818.468 104.329 802.311 120.487 802.311 140.418C802.311 160.349 818.468 176.506 838.399 176.506C858.33 176.506 874.488 160.349 874.488 140.418C874.488 120.487 858.33 104.329 838.399 104.329Z" fill="white" fill-opacity="0.15"/>
<rect x="802.311" y="220.469" width="72.1772" height="72.1772" rx="36.0886" fill="#0055FF"/>
<rect x="924" y="168" width="72.1772" height="72.1772" rx="36.0886" fill="#0055FF" fill-opacity="0.15"/>
<rect x="230" y="221" width="72.1772" height="72.1772" rx="36.0886" fill="#0055FF" fill-opacity="0.15"/>
<rect x="459" y="191" width="72.1772" height="72.1772" rx="36.0886" fill="#0055FF"/>
<path fill-rule="evenodd" clip-rule="evenodd" d="M1031.97 227.03C1031.97 246.236 1047.54 261.806 1066.74 261.806C1085.95 261.806 1101.52 246.236 1101.52 227.03C1101.52 207.824 1085.95 192.254 1066.74 192.254C1047.54 192.254 1031.97 207.824 1031.97 227.03ZM1066.74 190.941C1046.81 190.941 1030.65 207.099 1030.65 227.03C1030.65 246.961 1046.81 263.119 1066.74 263.119C1086.67 263.119 1102.83 246.961 1102.83 227.03C1102.83 207.099 1086.67 190.941 1066.74 190.941Z" fill="white" fill-opacity="0.15"/>
<path fill-rule="evenodd" clip-rule="evenodd" d="M688.14 305.113C688.14 324.319 703.71 339.889 722.916 339.889C742.122 339.889 757.692 324.319 757.692 305.113C757.692 285.907 742.122 270.337 722.916 270.337C703.71 270.337 688.14 285.907 688.14 305.113ZM722.916 269.024C702.985 269.024 686.827 285.182 686.827 305.113C686.827 325.044 702.985 341.202 722.916 341.202C742.847 341.202 759.005 325.044 759.005 305.113C759.005 285.182 742.847 269.024 722.916 269.024Z" fill="white" fill-opacity="0.15"/>
<path fill-rule="evenodd" clip-rule="evenodd" d="M70.8649 141.729H1.31231V379.258H70.8649V141.729ZM0 140.417V380.57H72.1772V140.417H0Z" fill="white" fill-opacity="0.15"/>
<path fill-rule="evenodd" clip-rule="evenodd" d="M185.692 1.31231H116.14V238.841H185.692V1.31231ZM114.827 0V240.153H187.005V0H114.827Z" fill="white" fill-opacity="0.15"/>
<path fill-rule="evenodd" clip-rule="evenodd" d="M404.192 81.3123H372.697C362.188 81.3123 353.668 89.8317 353.668 100.341V196.796C353.668 207.305 362.188 215.824 372.697 215.824H404.192C414.701 215.824 423.221 207.305 423.221 196.796V100.341C423.221 89.8317 414.701 81.3123 404.192 81.3123ZM372.697 80C361.463 80 352.356 89.1069 352.356 100.341V196.796C352.356 208.03 361.463 217.137 372.697 217.137H404.192C415.426 217.137 424.533 208.03 424.533 196.796V100.341C424.533 89.1069 415.426 80 404.192 80H372.697Z" fill="white" fill-opacity="0.15"/>
<path fill-rule="evenodd" clip-rule="evenodd" d="M397.631 261.806H366.135C355.626 261.806 347.107 270.326 347.107 280.835V377.29C347.107 387.799 355.626 396.318 366.135 396.318H397.631C408.14 396.318 416.659 387.799 416.659 377.29V280.835C416.659 270.326 408.14 261.806 397.631 261.806ZM366.135 260.494C354.901 260.494 345.794 269.601 345.794 280.835V377.29C345.794 388.524 354.901 397.631 366.135 397.631H397.631C408.864 397.631 417.971 388.524 417.971 377.29V280.835C417.971 269.601 408.864 260.494 397.631 260.494H366.135Z" fill="white" fill-opacity="0.15"/>
<path fill-rule="evenodd" clip-rule="evenodd" d="M529.518 87.2684H459.965V160.758H529.518V87.2684ZM458.653 85.9561V162.07H530.83V85.9561H458.653Z" fill="white" fill-opacity="0.15"/>
<path fill-rule="evenodd" clip-rule="evenodd" d="M529.518 293.302H459.965V366.791H529.518V293.302ZM458.653 291.989V368.103H530.83V291.989H458.653Z" fill="white" fill-opacity="0.15"/>
<path fill-rule="evenodd" clip-rule="evenodd" d="M301.176 335.296H231.623V435.688H301.176V335.296ZM230.311 333.983V437H302.488V333.983H230.311Z" fill="white" fill-opacity="0.15"/>
<path fill-rule="evenodd" clip-rule="evenodd" d="M1.31231 75.4577C1.31231 94.6641 16.8822 110.234 36.0886 110.234C55.295 110.234 70.8649 94.6641 70.8649 75.4577C70.8649 56.2513 55.295 40.6815 36.0886 40.6815C16.8822 40.6815 1.31231 56.2513 1.31231 75.4577ZM36.0886 39.3691C16.1574 39.3691 0 55.5266 0 75.4577C0 95.3889 16.1574 111.546 36.0886 111.546C56.0198 111.546 72.1772 95.3889 72.1772 75.4577C72.1772 55.5266 56.0198 39.3691 36.0886 39.3691Z" fill="white" fill-opacity="0.15"/>
<path fill-rule="evenodd" clip-rule="evenodd" d="M231.623 140.418C231.623 159.624 247.193 175.194 266.4 175.194C285.606 175.194 301.176 159.624 301.176 140.418C301.176 121.211 285.606 105.641 266.4 105.641C247.193 105.641 231.623 121.211 231.623 140.418ZM266.4 104.329C246.468 104.329 230.311 120.487 230.311 140.418C230.311 160.349 246.468 176.506 266.4 176.506C286.331 176.506 302.488 160.349 302.488 140.418C302.488 120.487 286.331 104.329 266.4 104.329Z" fill="white" fill-opacity="0.15"/>
<path fill-rule="evenodd" clip-rule="evenodd" d="M116.14 305.113C116.14 324.319 131.71 339.889 150.916 339.889C170.122 339.889 185.692 324.319 185.692 305.113C185.692 285.907 170.122 270.337 150.916 270.337C131.71 270.337 116.14 285.907 116.14 305.113ZM150.916 269.024C130.985 269.024 114.827 285.182 114.827 305.113C114.827 325.044 130.985 341.202 150.916 341.202C170.847 341.202 187.005 325.044 187.005 305.113C187.005 285.182 170.847 269.024 150.916 269.024Z" fill="white" fill-opacity="0.15"/>
</svg>
