<svg width="149" height="25" viewBox="0 0 149 25" fill="none" xmlns="http://www.w3.org/2000/svg">
<path d="M25.0612 8.75465C23.2691 8.75465 21.8159 10.2079 21.8159 12C21.8159 16.6272 18.6861 17.5093 16.3981 17.5093H11.2341C9.44202 17.5093 7.98875 18.9626 7.98875 20.7547C7.98875 22.5467 9.44202 24 11.2341 24H16.3981C18.0065 24 19.3403 22.8297 19.598 21.2947C20.2257 17.9507 22.2774 16.7733 24.6958 17.7151C29.153 19.4513 27.7633 24 34.6837 24H39.7932C46.415 24 51.8873 18.6919 51.9249 12.0701C51.9632 5.42103 46.5656 0 39.9256 0H36.5907C28.4455 0 31.3806 8.75465 25.0612 8.75465ZM39.9256 6.4907C42.9632 6.4907 45.4349 8.96235 45.4349 12C45.4349 15.0376 42.9632 17.5093 39.9256 17.5093H33.8165C30.7789 17.5093 28.3072 15.0376 28.3072 12C28.3072 8.96235 30.7789 6.4907 33.8165 6.4907H39.9256ZM3.24535 15.2453C1.45327 15.2453 0 13.7921 0 12C0 10.2079 1.45327 8.75465 3.24535 8.75465C5.03743 8.75465 6.4907 10.2079 6.4907 12C6.4907 13.7921 5.03743 15.2453 3.24535 15.2453ZM11.2341 0H16.3981C18.1902 0 19.6434 1.45327 19.6434 3.24535C19.6434 5.03743 18.1902 6.4907 16.3981 6.4907H11.2341C9.44202 6.4907 7.98875 5.03743 7.98875 3.24535C7.98875 1.45327 9.44202 0 11.2341 0Z" fill="white"/>
<path d="M75.679 10.1847H73.4631C73.3778 9.71117 73.2192 9.29451 72.9872 8.93466C72.7552 8.57481 72.4711 8.26941 72.1349 8.01847C71.7988 7.76752 71.4223 7.57812 71.0057 7.45028C70.5938 7.32244 70.1558 7.25852 69.6918 7.25852C68.8537 7.25852 68.1032 7.46922 67.4403 7.89062C66.7822 8.31203 66.2614 8.92992 65.8778 9.74432C65.4991 10.5587 65.3097 11.553 65.3097 12.7273C65.3097 13.911 65.4991 14.91 65.8778 15.7244C66.2614 16.5388 66.7846 17.1544 67.4474 17.571C68.1103 17.9877 68.8561 18.196 69.6847 18.196C70.1439 18.196 70.5795 18.1345 70.9915 18.0114C71.4081 17.8835 71.7846 17.6965 72.1207 17.4503C72.4569 17.2041 72.741 16.9034 72.973 16.5483C73.2098 16.1884 73.3731 15.7765 73.4631 15.3125L75.679 15.3196C75.5606 16.0346 75.331 16.6927 74.9901 17.294C74.6539 17.8906 74.2206 18.4067 73.6903 18.8423C73.1648 19.2732 72.5634 19.607 71.8864 19.8438C71.2093 20.0805 70.4706 20.1989 69.6705 20.1989C68.411 20.1989 67.2888 19.9006 66.304 19.304C65.3191 18.7027 64.5426 17.8433 63.9744 16.7259C63.411 15.6084 63.1293 14.2756 63.1293 12.7273C63.1293 11.1742 63.4134 9.84138 63.9815 8.72869C64.5497 7.61127 65.3262 6.75426 66.3111 6.15767C67.2959 5.55634 68.4157 5.25568 69.6705 5.25568C70.4422 5.25568 71.1619 5.36695 71.8295 5.58949C72.5019 5.80729 73.1056 6.12926 73.6406 6.5554C74.1757 6.9768 74.6184 7.4929 74.9688 8.10369C75.3191 8.70975 75.5559 9.40341 75.679 10.1847ZM79.4361 20H77.1065L82.3409 5.45455H84.8764L90.1108 20H87.7812L83.669 8.09659H83.5554L79.4361 20ZM79.8267 14.304H87.3835V16.1506H79.8267V14.304ZM100.027 9.27557C99.9516 8.60322 99.6391 8.08239 99.0898 7.71307C98.5406 7.33902 97.8493 7.15199 97.016 7.15199C96.4194 7.15199 95.9033 7.24669 95.4677 7.43608C95.0321 7.62074 94.6935 7.87642 94.4521 8.20312C94.2153 8.52509 94.0969 8.89205 94.0969 9.30398C94.0969 9.64962 94.1774 9.94792 94.3384 10.1989C94.5041 10.4498 94.7196 10.6605 94.9847 10.831C95.2546 10.9967 95.5434 11.1364 95.8512 11.25C96.159 11.3589 96.4549 11.4489 96.739 11.5199L98.1594 11.8892C98.6235 12.0028 99.0993 12.1567 99.587 12.3509C100.075 12.545 100.527 12.8007 100.944 13.1179C101.36 13.4351 101.696 13.8281 101.952 14.2969C102.212 14.7656 102.343 15.3267 102.343 15.9801C102.343 16.804 102.13 17.5355 101.703 18.1747C101.282 18.8139 100.669 19.3182 99.864 19.6875C99.0638 20.0568 98.0955 20.2415 96.9592 20.2415C95.8701 20.2415 94.9279 20.0687 94.1325 19.723C93.337 19.3774 92.7144 18.8873 92.2646 18.2528C91.8147 17.6136 91.5662 16.8561 91.5188 15.9801H93.7205C93.7631 16.5057 93.9336 16.9437 94.2319 17.294C94.5349 17.6397 94.9208 17.8977 95.3896 18.0682C95.863 18.2339 96.3815 18.3168 96.945 18.3168C97.5652 18.3168 98.1168 18.2197 98.5998 18.0256C99.0875 17.8267 99.471 17.5521 99.7504 17.2017C100.03 16.8466 100.169 16.4323 100.169 15.9588C100.169 15.5279 100.046 15.1752 99.8001 14.9006C99.5586 14.6259 99.2295 14.3987 98.8129 14.2188C98.4009 14.0388 97.9345 13.8802 97.4137 13.7429L95.695 13.2741C94.5302 12.9569 93.6069 12.4905 92.9251 11.875C92.248 11.2595 91.9094 10.4451 91.9094 9.43182C91.9094 8.59375 92.1367 7.86222 92.5913 7.23722C93.0458 6.61222 93.6613 6.12689 94.4379 5.78125C95.2144 5.43087 96.0903 5.25568 97.0657 5.25568C98.0505 5.25568 98.9194 5.4285 99.6722 5.77415C100.43 6.11979 101.026 6.59564 101.462 7.2017C101.898 7.80303 102.125 8.49432 102.144 9.27557H100.027ZM104.965 20V5.45455H114.085V7.34375H107.16V11.7756H113.609V13.6577H107.16V18.1108H114.17V20H104.965ZM115.894 5.45455H118.387L122.186 12.0668H122.343L126.142 5.45455H128.635L123.358 14.2898V20H121.171V14.2898L115.894 5.45455ZM129.587 6.59801V5.27273H136.55V6.59801H133.852V14H132.284V6.59801H129.587ZM138.252 5.27273H140.187L142.778 11.5966H142.88L145.471 5.27273H147.405V14H145.888V8.00426H145.807L143.396 13.9744H142.262L139.85 7.99148H139.769V14H138.252V5.27273Z" fill="white"/>
</svg>
