<?xml version="1.0" encoding="UTF-8"?>
<svg version="1.1" xmlns="http://www.w3.org/2000/svg" width="501" height="406">
<path d="M0 0 C3.31832191 3.02370454 6.55494842 6.09528487 9.6875 9.3125 C10.20062744 9.80951416 10.71375488 10.30652832 11.24243164 10.81860352 C15.36715723 14.83623873 19.00966398 19.00214397 22.4375 23.625 C23.20066528 24.65270508 23.20066528 24.65270508 23.97924805 25.70117188 C32.10039352 36.81894345 39.68457322 48.34323735 44.14379883 61.45117188 C44.88700338 63.60324255 44.88700338 63.60324255 46.6875 66.3125 C50.10296556 67.29894508 50.10296556 67.29894508 53.6875 67.3125 C63.46270543 69.40603658 69.81448422 75.43397742 75.6875 83.3125 C88.47458887 105.10274329 90.88815363 132.08915999 84.6875 156.47265625 C80.89035989 170.10254408 74.61318112 181.44659145 63.25 190.1875 C58.81430572 192.13487797 54.02433075 193.09319919 49.20825195 193.54516602 C46.54406616 194.07618289 46.54406616 194.07618289 45.23706055 196.34692383 C44.66145386 197.6698645 44.66145386 197.6698645 44.07421875 199.01953125 C43.63513184 199.99301514 43.19604492 200.96649902 42.74365234 201.96948242 C42.29199707 203.01080322 41.8403418 204.05212402 41.375 205.125 C37.4163949 213.81360001 33.40635431 221.64142634 27.6875 229.3125 C27.00429688 230.27671875 26.32109375 231.2409375 25.6171875 232.234375 C20.26714549 239.63622524 14.33012254 246.32436267 8.02441406 252.90820312 C6.91404023 254.07454174 5.82521979 255.26135453 4.7421875 256.453125 C-16.47788051 279.10055184 -50.00642956 296.64525971 -80.71875 301.1484375 C-92.46901508 302.5023134 -92.46901508 302.5023134 -101.625 309.375 C-102.25921875 310.24898438 -102.8934375 311.12296875 -103.546875 312.0234375 C-106.20981043 315.47582724 -109.04267403 316.74600824 -113.3125 317.3125 C-119.90936465 317.44967488 -124.99793443 315.25027583 -130 311.0625 C-133.42096733 306.99432263 -135.02037159 303.24785071 -135.8125 298 C-135.00905453 292.07458966 -132.94784583 286.56331093 -128.3046875 282.59765625 C-123.0222917 279.23524564 -118.66344185 277.791931 -112.3125 278.3125 C-106.92385607 280.19392407 -103.12127162 283.04205909 -99.3125 287.3125 C-97.73059922 288.89440078 -96.14675016 288.50892376 -93.953125 288.54296875 C-88.04604537 288.4789439 -82.7285749 287.2036719 -77.0625 285.625 C-76.05106934 285.34954346 -75.03963867 285.07408691 -73.99755859 284.7902832 C-31.54303818 273.03735606 2.571585 245.47356139 24.4375 207.375 C44.59971937 171.13005918 49.816556 127.45396974 38.58544922 87.50268555 C32.90854977 68.20373775 24.45682126 49.00861578 11.6875 33.3125 C11.28450684 32.81089355 10.88151367 32.30928711 10.46630859 31.79248047 C-3.76704924 14.15467901 -19.52118127 0.38671966 -39.3125 -10.6875 C-40.90578125 -11.59628906 -40.90578125 -11.59628906 -42.53125 -12.5234375 C-79.34276862 -32.269422 -123.29937129 -34.75536424 -162.9375 -23.01660156 C-181.70438145 -17.25248798 -198.85428666 -8.98061074 -214.0546875 3.578125 C-216.3125 5.3125 -216.3125 5.3125 -218.3125 5.3125 C-218.3125 5.9725 -218.3125 6.6325 -218.3125 7.3125 C-219.88671875 8.86328125 -219.88671875 8.86328125 -222 10.625 C-225.25833638 13.39744411 -228.32356039 16.24692091 -231.3125 19.3125 C-231.81007813 19.7765625 -232.30765625 20.240625 -232.8203125 20.71875 C-253.495871 40.33648923 -265.81568374 68.00795673 -272.3125 95.3125 C-272.49184082 96.05983398 -272.67118164 96.80716797 -272.85595703 97.57714844 C-278.69463834 123.28590012 -276.65722016 151.93522428 -269.08203125 177.015625 C-268.24502673 180.60157332 -268.01451562 183.64328933 -268.3125 187.3125 C-272.70485744 191.58926908 -278.31085978 193.00176419 -284.3125 193.3125 C-293.31459009 192.34799035 -300.36042396 186.96505342 -306.09765625 180.2109375 C-319.59014961 161.23172689 -321.68588912 135.84681728 -318.5625 113.375 C-318.1809877 111.347236 -317.76394681 109.32584901 -317.3125 107.3125 C-317.06757813 106.1884375 -316.82265625 105.064375 -316.5703125 103.90625 C-312.90417279 89.24169118 -306.14419528 77.79723518 -293.375 69.375 C-288.50562433 67.68562477 -283.45242565 67.3125 -278.3125 67.3125 C-278.06922974 66.50002808 -278.06922974 66.50002808 -277.82104492 65.67114258 C-275.96730998 59.77346998 -273.5457981 54.44007733 -270.625 49 C-270.18293213 48.17113281 -269.74086426 47.34226562 -269.28540039 46.48828125 C-247.64208678 6.45224354 -210.38805457 -23.96832133 -166.8125 -37 C-108.22347258 -54.23442376 -45.60271988 -40.68543989 0 0 Z " fill="#000000" transform="translate(371.3125,80.6875)"/>
<path d="M0 0 C0.763125 0.69351563 1.52625 1.38703125 2.3125 2.1015625 C19.890984 18.88657327 31.15555513 40.54252355 37 64 C37.35835937 65.25039062 37.71671875 66.50078125 38.0859375 67.7890625 C39.57139774 74.61829325 39.3719941 81.65179915 39.37060547 88.6081543 C39.3749474 91.03312132 39.41126053 93.4562167 39.44921875 95.88085938 C39.5259989 106.50928995 38.08516078 115.8430473 35 126 C34.75910645 126.84151611 34.51821289 127.68303223 34.27001953 128.55004883 C29.65117512 144.14273059 21.83786086 158.8555986 11 171 C10.32710937 171.80308594 9.65421875 172.60617187 8.9609375 173.43359375 C-10.7470134 196.40231471 -39.72678175 211.60484426 -69.8359375 214.72265625 C-93.84397771 216.52297168 -117.78495261 213.64775431 -139.17578125 202.00390625 C-144.95834794 199.94841574 -149.17038234 201.95498411 -154.484375 204.40625 C-156.57756833 205.4280252 -158.6659116 206.45977964 -160.75 207.5 C-162.98022734 208.59294067 -165.21069877 209.68538338 -167.44140625 210.77734375 C-168.54500488 211.32116699 -169.64860352 211.86499023 -170.78564453 212.42529297 C-175.39761641 214.6846898 -180.04006662 216.87722145 -184.6875 219.0625 C-186.17090346 219.76101723 -187.65399909 220.46018873 -189.13671875 221.16015625 C-190.1268396 221.62615234 -190.1268396 221.62615234 -191.13696289 222.1015625 C-192.89350754 222.94864471 -194.62372342 223.84971074 -196.3515625 224.75390625 C-199 226 -199 226 -201.6875 225.875 C-204.3250718 224.87699986 -205.48403225 224.39363328 -207 222 C-207.52820969 216.30942091 -206.18503875 212.51620136 -203.5 207.625 C-202.75969765 206.21460067 -202.02148262 204.80310414 -201.28515625 203.390625 C-200.90504395 202.66810547 -200.52493164 201.94558594 -200.13330078 201.20117188 C-197.94171389 196.94452658 -195.96139709 192.58807789 -193.95141602 188.24365234 C-192.34114045 184.78466041 -190.69019849 181.36538115 -188.90625 177.9921875 C-188.5750415 177.36006348 -188.24383301 176.72793945 -187.90258789 176.07666016 C-186.99710461 174.36281602 -186.07528215 172.65763268 -185.15234375 170.953125 C-183.82004233 167.53882036 -183.73537383 166.40356179 -185 163 C-186.36190629 160.56320073 -187.75581807 158.22621421 -189.25 155.875 C-205.48829271 129.36363204 -212.00582762 95.97383052 -204.76611328 65.44604492 C-204.20992366 63.28673439 -203.61528906 61.14314736 -203 59 C-202.81808105 58.3414502 -202.63616211 57.68290039 -202.44873047 57.00439453 C-196.56605735 36.13904188 -185.20486052 18.29242239 -170 3 C-169.52691406 2.52288574 -169.05382812 2.04577148 -168.56640625 1.55419922 C-157.59833531 -9.35070871 -145.29776793 -17.08054194 -131 -23 C-130.12214844 -23.36738281 -129.24429688 -23.73476562 -128.33984375 -24.11328125 C-85.01010863 -41.03998019 -34.28694434 -31.24172231 0 0 Z M-153.8125 50.25 C-157.47059953 54.8487537 -158.42237689 59.10645912 -158.25390625 64.98046875 C-157.71099724 69.29868349 -155.83349967 72.71502134 -153.5 76.3125 C-148.33944413 79.79587521 -142.18299829 80.2816772 -136.125 79.5 C-132.01127095 77.52541005 -130.48215257 75.83605397 -128 72 C-127.57869093 69.24598049 -127.57869093 69.24598049 -128 67 C-131.37400578 66.58274322 -131.37400578 66.58274322 -135 67 C-135.474375 67.825 -135.94875 68.65 -136.4375 69.5 C-138 72 -138 72 -139.84765625 72.47265625 C-142.10694033 72.56696393 -143.82195791 72.63672601 -146 72 C-148.11622925 69.8885586 -148.91484595 68.52094242 -149.3984375 65.5625 C-149.39070313 64.716875 -149.38296875 63.87125 -149.375 63 C-149.38273437 62.154375 -149.39046875 61.30875 -149.3984375 60.4375 C-148.91487896 57.47925949 -148.11867515 56.10908839 -146 54 C-143.28485816 53.25552562 -140.74377167 53.39671828 -138 54 C-136.9739266 55.31337396 -135.97272675 56.64664105 -135 58 C-131.37436186 58.33380814 -131.37436186 58.33380814 -128 58 C-128.18909018 53.9345611 -128.75829586 52.27191716 -131.5 49.1875 C-138.26481695 44.15849939 -147.42771003 45.14216802 -153.8125 50.25 Z M-121 47 C-121 57.56 -121 68.12 -121 79 C-118.69 79 -116.38 79 -114 79 C-114 75.04 -114 71.08 -114 67 C-110.6875 67.0625 -110.6875 67.0625 -107 68 C-105.1875 71.3125 -105.1875 71.3125 -104 75 C-103.34711373 76.34013497 -102.68774405 77.67741528 -102 79 C-99.69 79 -97.38 79 -95 79 C-95.97472708 73.73647377 -96.98820986 69.51768521 -100 65 C-100 63 -100 63 -98.5 61.25 C-96.52856704 58.29285056 -96.63582162 56.49611246 -97 53 C-97.87253196 50.38240411 -98.44389053 49.33754132 -100.80761719 47.90283203 C-103.17858052 46.92645983 -104.77811234 46.76825875 -107.328125 46.8046875 C-108.0490332 46.80968262 -108.76994141 46.81467773 -109.51269531 46.81982422 C-110.86766113 46.84713623 -110.86766113 46.84713623 -112.25 46.875 C-116.58125 46.936875 -116.58125 46.936875 -121 47 Z M-91 47 C-91 57.56 -91 68.12 -91 79 C-88.69 79 -86.38 79 -84 79 C-84 68.44 -84 57.88 -84 47 C-86.31 47 -88.62 47 -91 47 Z M-75.8125 49.1875 C-77.68121208 52.03974475 -77.82309499 54.63880477 -78 58 C-77.09179555 60.63133829 -76.4590722 61.72731111 -74.046875 63.16015625 C-73.28890625 63.45792969 -72.5309375 63.75570312 -71.75 64.0625 C-70.95207031 64.38863281 -70.15414062 64.71476562 -69.33203125 65.05078125 C-68.56246094 65.36402344 -67.79289063 65.67726563 -67 66 C-64.99300751 66.98589105 -62.98969233 67.97964496 -61 69 C-61 69.99 -61 70.98 -61 72 C-63.75 72.75 -63.75 72.75 -67 73 C-68.33333333 71.66666667 -69.66666667 70.33333333 -71 69 C-74.6675213 68.66582071 -74.6675213 68.66582071 -78 69 C-77.81861585 73.99896231 -77.81861585 73.99896231 -75 77.875 C-69.37563797 79.98413576 -64.32943877 80.74221521 -58.5625 78.75 C-54.82758216 77.28546753 -54.82758216 77.28546753 -53 74 C-52.4633412 70.93257131 -52.48084026 68.07029952 -53 65 C-56.58379069 60.57999148 -62.69528929 58.76510728 -68 57 C-68.66 57 -69.32 57 -70 57 C-70 55.68 -70 54.36 -70 53 C-67.1875 52.8125 -67.1875 52.8125 -64 53 C-63.525625 53.495 -63.05125 53.99 -62.5625 54.5 C-60.91660308 56.40783642 -60.91660308 56.40783642 -57.3125 56.1875 C-56.219375 56.125625 -55.12625 56.06375 -54 56 C-54.36532224 51.75673059 -54.36532224 51.75673059 -56.5 48.1875 C-62.95235218 45.12263272 -69.77198166 45.22991902 -75.8125 49.1875 Z M-52 47 C-52 48.98 -52 50.96 -52 53 C-49.36 53 -46.72 53 -44 53 C-44.00785522 54.1281311 -44.00785522 54.1281311 -44.01586914 55.27905273 C-44.03657227 58.66519342 -44.04963877 62.05132084 -44.0625 65.4375 C-44.07087891 66.62150391 -44.07925781 67.80550781 -44.08789062 69.02539062 C-44.09272461 70.71245117 -44.09272461 70.71245117 -44.09765625 72.43359375 C-44.10289307 73.47572021 -44.10812988 74.51784668 -44.11352539 75.59155273 C-44.27305556 77.95128747 -44.27305556 77.95128747 -43 79 C-40 79.16666667 -40 79.16666667 -37 79 C-35.72694444 77.95128747 -35.72694444 77.95128747 -35.88647461 75.59155273 C-35.89171143 74.54942627 -35.89694824 73.5072998 -35.90234375 72.43359375 C-35.90717773 70.7465332 -35.90717773 70.7465332 -35.91210938 69.02539062 C-35.92048828 67.84138672 -35.92886719 66.65738281 -35.9375 65.4375 C-35.94201172 64.24962891 -35.94652344 63.06175781 -35.95117188 61.83789062 C-35.96300325 58.89187774 -35.97948713 55.94596319 -36 53 C-33.36 53 -30.72 53 -28 53 C-28 51.02 -28 49.04 -28 47 C-35.92 47 -43.84 47 -52 47 Z M-19 47 C-20.57068858 51.23432728 -22.13715849 55.47018165 -23.69970703 59.70751953 C-24.23207236 61.14935584 -24.76559627 62.59076492 -25.30029297 64.03173828 C-26.06781766 66.1007798 -26.8311884 68.17131251 -27.59375 70.2421875 C-27.83436157 70.88807831 -28.07497314 71.53396912 -28.32287598 72.19943237 C-29.58702153 75.51246197 -29.58702153 75.51246197 -30 79 C-27.69 79 -25.38 79 -23 79 C-22.731875 78.030625 -22.46375 77.06125 -22.1875 76.0625 C-20 73 -20 73 -17.3515625 72.37890625 C-14.55892004 72.14558779 -11.80192703 72.00951418 -9 72 C-8.855625 72.969375 -8.71125 73.93875 -8.5625 74.9375 C-8.32437659 77.86486773 -8.32437659 77.86486773 -7 79 C-4.66702567 79.04092937 -2.33294775 79.04241723 0 79 C-0.60031228 74.77777747 -1.58062903 70.98790511 -3.03125 66.98046875 C-3.42957031 65.87638672 -3.82789063 64.77230469 -4.23828125 63.63476562 C-4.65464844 62.49716797 -5.07101562 61.35957031 -5.5 60.1875 C-5.91636719 59.03056641 -6.33273437 57.87363281 -6.76171875 56.68164062 C-8.25642442 51.48111272 -8.25642442 51.48111272 -11 47 C-13.67058851 46.85884839 -16.32432238 46.95752893 -19 47 Z M-130 110 C-131.75619893 113.51239785 -130.94999674 117.28577664 -130 121 C-128.02928108 123.72675163 -128.02928108 123.72675163 -125 125 C-121.2102435 125.32670315 -118.60572704 125.20190901 -115 124 C-115.625 126.375 -115.625 126.375 -117 129 C-120.125 130.3125 -120.125 130.3125 -123 131 C-123.33 130.01 -123.66 129.02 -124 128 C-125.98 128 -127.96 128 -130 128 C-130.33 128.66 -130.66 129.32 -131 130 C-129.75408501 132.62297893 -128.61861236 134.51885706 -126.3125 136.3125 C-121.68909218 137.68702665 -117.60559547 137.64223819 -113.1875 135.875 C-109.44372716 132.66605185 -108.14165404 129.19448813 -107.56640625 124.34375 C-107.56511719 123.0753125 -107.56382812 121.806875 -107.5625 120.5 C-107.54316406 119.2315625 -107.52382812 117.963125 -107.50390625 116.65625 C-108.07944375 112.41449329 -109.31835353 110.2975038 -112 107 C-118.43242408 102.71171728 -125.39855586 103.76578535 -130 110 Z M-86 109 C-86.99 109.33 -87.98 109.66 -89 110 C-89 112.31 -89 114.62 -89 117 C-86.36 116.34 -83.72 115.68 -81 115 C-81.00785522 115.94637329 -81.00785522 115.94637329 -81.01586914 116.91186523 C-81.03657826 119.75373347 -81.04964066 122.59558588 -81.0625 125.4375 C-81.07087891 126.43072266 -81.07925781 127.42394531 -81.08789062 128.44726562 C-81.09111328 129.39150391 -81.09433594 130.33574219 -81.09765625 131.30859375 C-81.10289307 132.18314209 -81.10812988 133.05769043 -81.11352539 133.95874023 C-81.22784809 135.99440206 -81.22784809 135.99440206 -80 137 C-77.5 137.16666667 -77.5 137.16666667 -75 137 C-73.66003068 135.88652404 -73.66003068 135.88652404 -73.88647461 133.04077148 C-73.89171143 131.74727783 -73.89694824 130.45378418 -73.90234375 129.12109375 C-73.9037587 128.4344313 -73.90517365 127.74776886 -73.90663147 127.04029846 C-73.91224521 124.83932199 -73.92479993 122.63844591 -73.9375 120.4375 C-73.94251324 118.94856917 -73.94707645 117.45963676 -73.95117188 115.97070312 C-73.96221907 112.31376925 -73.97949287 108.65689442 -74 105 C-79.64876047 104.79446998 -81.79994232 105.14994712 -86 109 Z M-50 111 C-50.34491166 113.63949291 -50.34491166 113.63949291 -50 116 C-49.01 116.495 -49.01 116.495 -48 117 C-46.02 116.34 -44.04 115.68 -42 115 C-41.67 122.26 -41.34 129.52 -41 137 C-39.02 137 -37.04 137 -35 137 C-33.11680732 135.11680732 -33.86945715 131.88069863 -33.8671875 129.375 C-33.86623077 128.71290527 -33.86527405 128.05081055 -33.86428833 127.36865234 C-33.86360674 125.96647039 -33.86545958 124.5642853 -33.86962891 123.16210938 C-33.87497754 121.00904287 -33.8696833 118.85618498 -33.86328125 116.703125 C-33.86394204 115.34374954 -33.86522321 113.9843742 -33.8671875 112.625 C-33.86831543 111.37976563 -33.86944336 110.13453125 -33.87060547 108.8515625 C-33.67427873 106.10094569 -33.67427873 106.10094569 -35 105 C-40.90664016 103.96633797 -45.93365285 106.83425325 -50 111 Z M-105 122 C-105 123.65 -105 125.3 -105 127 C-103.91830354 128.30547755 -103.91830354 128.30547755 -101.3125 128.1328125 C-100.219375 128.13023437 -99.12625 128.12765625 -98 128.125 C-96.906875 128.12757813 -95.81375 128.13015625 -94.6875 128.1328125 C-92.08169646 128.30547755 -92.08169646 128.30547755 -91 127 C-91 125.35 -91 123.7 -91 122 C-95.62 122 -100.24 122 -105 122 Z M-65 122 C-65 123.98 -65 125.96 -65 128 C-60.71 128 -56.42 128 -52 128 C-52 126.02 -52 124.04 -52 122 C-56.29 122 -60.58 122 -65 122 Z " fill="#000000" transform="translate(339,119)"/>
<path d="M0 0 C6.15234375 -0.09765625 6.15234375 -0.09765625 8 0 C9 1 9 1 9.1875 3.4375 C9 6 9 6 7 8 C3.375 8.125 3.375 8.125 0 8 C0 5.36 0 2.72 0 0 Z " fill="#000000" transform="translate(225,172)"/>
<path d="M0 0 C0.66 0 1.32 0 2 0 C3.49821059 3.37097383 4 5.20442119 4 9 C2.02 9 0.04 9 -2 9 C-1.34 6.03 -0.68 3.06 0 0 Z " fill="#000000" transform="translate(323,176)"/>
<path d="M0 0 C2.5 0.25 2.5 0.25 4.5 2.25 C4.6875 4.8125 4.6875 4.8125 4.5 7.25 C3.5 8.25 3.5 8.25 -0.0625 8.3125 C-1.196875 8.291875 -2.33125 8.27125 -3.5 8.25 C-4.125 5.375 -4.125 5.375 -4.5 2.25 C-2.5 0.25 -2.5 0.25 0 0 Z " fill="#000000" transform="translate(219.5,229.75)"/>
</svg>
